<svg width="143" height="47" viewBox="0 0 143 47" fill="none" xmlns="http://www.w3.org/2000/svg">
<path d="M27.3973 1.05813C26.9163 2.17668 22.5725 11.498 22.4949 11.5601C22.4639 11.5912 21.9985 11.3581 21.471 11.0319C20.9436 10.7212 20.4316 10.4571 20.3385 10.4571C20.2454 10.4571 17.6236 11.933 14.5054 13.7506C11.3871 15.5527 8.73424 17.0907 8.61013 17.1684C8.40845 17.2772 8.37742 18.1627 8.33088 23.3671L8.29985 29.4414L8.64116 29.69C8.84284 29.8298 9.26171 30.0939 9.57198 30.2803L10.1615 30.6221L5.073 33.5894L0 36.5411V37.2713V38.017L7.66379 42.4446L15.3276 46.8567H16.4291H17.5305L22.619 43.905C25.4115 42.2737 27.7696 40.9532 27.8782 40.9532C27.9713 40.9532 28.5763 41.2795 29.2279 41.6678C30.3294 42.3359 30.438 42.3669 30.7948 42.165C31.4153 41.8077 42.3525 35.4692 42.3991 35.4226C42.4301 35.407 42.4611 24.672 42.4301 23.2894C42.4301 23.1962 41.9492 22.8389 41.3441 22.5281C40.7546 22.2019 40.2582 21.8757 40.2582 21.8135C40.2582 21.7358 41.4527 19.1103 42.8955 15.9877C44.3538 12.8495 45.5328 10.1774 45.5328 10.0221C45.5328 9.88227 45.4087 9.66478 45.2691 9.54049C45.114 9.41621 41.5303 7.30339 37.295 4.86432L29.5847 0.40564H28.6384H27.6765L27.3973 1.05813ZM36.3332 5.71877C40.5064 8.12677 43.966 10.1464 44.0435 10.2085C44.1987 10.3483 39.2032 21.2698 39.0171 21.1921C38.3965 20.9435 23.6585 12.2592 23.6585 12.1505C23.6585 12.0262 25.1633 8.71711 27.8317 3.00006C28.2505 2.08347 28.6384 1.33777 28.6849 1.33777C28.7315 1.33777 32.1755 3.31077 36.3332 5.71877ZM21.0677 12.1971L21.5176 12.4922L20.0593 13.3467C19.2681 13.8127 18.2131 14.4186 17.7167 14.6983C16.6307 15.3042 16.367 15.7081 16.7704 16.0965C16.941 16.2363 18.9888 17.4636 21.3314 18.8152C23.674 20.1668 27.3818 22.3106 29.5692 23.569C31.7566 24.8429 33.6803 25.8838 33.8355 25.8838C34.0061 25.8838 35.3093 25.1847 36.7676 24.3458L39.4049 22.8078L39.9789 23.1496C40.3047 23.3205 40.5684 23.5069 40.5684 23.5535C40.5684 23.6156 31.3067 29.0375 30.6396 29.3482C30.4535 29.4414 30.0191 29.2705 29.0728 28.7113C27.8782 27.9966 22.2157 24.7186 13.6056 19.7473C11.7129 18.6598 10.1925 17.7277 10.2236 17.6966C10.5183 17.4014 20.0748 11.933 20.323 11.9174C20.4937 11.9174 20.835 12.0417 21.0677 12.1971ZM31.9893 18.5355C35.3403 20.4775 38.0397 22.1087 38.0087 22.1553C37.9001 22.3262 34.0061 24.5322 33.82 24.5322C33.6648 24.5322 31.1361 23.0874 22.4484 18.0539C20.3851 16.8422 18.6786 15.8013 18.6786 15.7236C18.663 15.6304 19.5783 15.0401 20.7109 14.372L22.7587 13.1758L24.3411 14.0924C25.1943 14.6051 28.6384 16.5936 31.9893 18.5355ZM16.879 23.0253C20.8194 25.309 24.822 27.6238 25.7528 28.1831C26.6992 28.7423 27.7076 29.3327 28.0023 29.5036C28.2971 29.6589 28.8401 29.9696 29.2124 30.1871L29.864 30.5755V35.5313C29.864 38.25 29.8329 40.4871 29.7864 40.4871C29.7399 40.4871 29.4141 40.3473 29.0883 40.1764L28.4677 39.8657V36.3858C28.4677 32.4242 28.6384 32.8592 26.7612 31.7873C26.1251 31.43 22.4639 29.3171 18.6165 27.0956C13.7297 24.2837 11.5267 23.0874 11.2475 23.1185L10.8596 23.1651L10.8131 26.3033C10.7976 28.0432 10.72 29.457 10.6579 29.457C10.5959 29.457 10.3166 29.3171 10.0529 29.1463L9.54095 28.8355V23.8642C9.54095 21.13 9.57198 18.8928 9.61852 18.8928C9.66506 18.8928 12.923 20.7571 16.879 23.0253ZM41.3131 29.6434L41.2666 34.6613L36.3022 37.5665C33.5717 39.1511 31.2912 40.4716 31.2137 40.4716C31.1516 40.4871 31.1206 38.2345 31.1361 35.4847L31.1826 30.4668L36.147 27.5616C38.8774 25.977 41.158 24.6565 41.2355 24.6565C41.2976 24.641 41.3286 26.8936 41.3131 29.6434ZM19.0354 28.7579C22.8207 30.9328 26.2027 32.8748 26.575 33.0923L27.2266 33.4962V34.5215V35.5469L26.1096 34.9254C25.4891 34.5837 22.0761 32.6262 18.5389 30.5755L12.1007 26.847L12.0542 25.8217C12.0232 25.2624 12.0387 24.7963 12.0852 24.7963C12.1317 24.7963 15.2655 26.5829 19.0354 28.7579ZM19.9817 32.7971L27.2266 36.9606V38.0481V39.12L26.8853 38.9025C26.6836 38.7782 25.1012 37.8461 23.3482 36.8363C21.5951 35.8265 19.6869 34.708 19.0819 34.3662C18.4924 34.0089 16.6462 32.9524 15.0173 32.0203L12.0232 30.3114V29.2395V28.1831L12.38 28.4006C12.5661 28.5248 15.9792 30.4978 19.9817 32.7971ZM13.9469 32.8126C16.2274 34.1331 16.5066 34.3351 16.2584 34.506C15.6999 34.8944 6.45372 40.1764 6.34512 40.1764C6.11242 40.1764 1.17904 37.3024 1.25661 37.2247C1.33418 37.1626 11.2785 31.3368 11.3405 31.3212C11.3561 31.3212 12.5351 31.9892 13.9469 32.8126ZM18.5544 35.4692C18.9733 35.7178 19.3146 35.9353 19.3146 35.9819C19.3146 36.0285 17.0496 37.3801 14.2726 38.9802L9.23068 41.9009L8.45499 41.4814C8.03612 41.2484 7.6793 41.0154 7.6793 40.9687C7.6793 40.8911 17.5926 35.0653 17.7477 35.0497C17.7632 35.0497 18.1356 35.2362 18.5544 35.4692ZM23.674 38.452L26.6216 40.1454L25.3339 40.9221C22.3708 42.6932 16.5997 45.9712 16.4291 45.9712C16.336 45.9712 14.9397 45.2255 13.3418 44.2933C11.3871 43.1748 10.5028 42.5844 10.6424 42.4912C10.7665 42.4291 13.0315 41.1086 15.6689 39.5706C18.3217 38.0325 20.5402 36.7586 20.6023 36.7586C20.6798 36.7586 22.0605 37.5199 23.674 38.452Z" fill="#293393"/>
<path d="M77.8014 1.04262C75.7691 1.431 73.1473 3.3574 72.1079 5.22166C70.3704 8.29768 70.8358 12.3835 73.2249 15.1177C75.1951 17.3704 78.8254 18.5045 81.8505 17.8054C83.0916 17.5257 84.7981 16.6402 85.6979 15.8168L86.4891 15.0867L85.76 14.0924L85.0464 13.0981L84.7206 13.4865C83.6656 14.7604 81.6954 15.6304 79.8182 15.6304C77.1654 15.6304 74.9314 14.2012 73.7989 11.7776C73.2404 10.5814 73.2249 8.56178 73.7524 7.19466C74.7608 4.61577 77.2585 3.07776 80.1906 3.23312C81.2765 3.29526 81.6489 3.38847 82.6262 3.87007C83.2623 4.18078 83.9604 4.5847 84.1931 4.78666L84.6275 5.12844L85.2015 4.44488C86.1168 3.40401 86.1168 3.38847 85.5428 2.89134C84.7361 2.19224 83.0761 1.36886 81.9746 1.10476C80.9042 0.856192 78.9184 0.825121 77.8014 1.04262Z" fill="black"/>
<path d="M52.8243 9.49391V17.65H53.9879H55.1514V14.0924C55.1514 11.0941 55.1824 10.5037 55.3841 10.3484C55.772 10.0221 57.7112 9.99104 60.1934 10.2551C62.4274 10.4882 63.8236 10.4416 64.6613 10.1153C64.9095 10.0066 64.9251 10.2551 64.9251 13.8283V17.65H66.0886H67.2521V9.49391V1.33779H66.0886H64.9251V4.52256V7.69179L64.3511 7.84715C63.4978 8.09571 61.419 8.04911 59.216 7.76947C57.3699 7.53644 56.2684 7.58304 55.4307 7.94036C55.1669 8.04911 55.1514 7.83161 55.1514 4.69345V1.33779H53.9879H52.8243V9.49391Z" fill="black"/>
<path d="M88.8162 1.431C88.8162 1.47761 89.2041 1.99028 89.6695 2.54955L90.5227 3.57489V10.6125V17.65H91.6863H92.8498L92.8808 12.0417L92.9274 6.43342L95.6423 9.7114C97.1316 11.5135 98.3882 12.9738 98.4503 12.9583C98.5123 12.9272 99.7689 11.4514 101.243 9.6648L103.942 6.43342L103.989 12.0417L104.02 17.65H105.183H106.347V10.6125V3.57489L107.2 2.54955C107.665 1.99028 108.053 1.47761 108.053 1.431C108.053 1.38439 107.402 1.33779 106.61 1.33779H105.168L101.863 5.25272C100.033 7.41215 98.4968 9.19873 98.4347 9.2298C98.3572 9.26087 96.8368 7.48983 95.0217 5.31487L91.7328 1.33779H90.2745C89.4678 1.33779 88.8162 1.38439 88.8162 1.431Z" fill="black"/>
<path d="M111.497 7.19464C111.559 12.8962 111.559 13.0981 111.916 13.9681C112.847 16.314 114.802 17.6655 117.672 17.9452C121.721 18.3491 124.653 16.8577 125.785 13.8127C126.096 12.9583 126.111 12.5854 126.173 7.11696L126.235 1.33777H125.072H123.893L123.846 6.88393L123.8 12.4456L123.334 13.3778C122.497 15.04 120.945 15.7236 118.277 15.5993C117.16 15.5527 116.756 15.4595 116.027 15.0711C114.926 14.5118 114.197 13.6108 113.964 12.5233C113.855 12.0417 113.793 9.71138 113.793 6.54215V1.33777H112.614H111.451L111.497 7.19464Z" fill="black"/>
<path d="M128.997 2.50295V3.66811H131.944H134.892V10.6591V17.65H136.056H137.219V10.6591V3.66811H140.089H142.959V2.50295V1.33779H135.978H128.997V2.50295Z" fill="black"/>
<path d="M60.0848 22.3883C57.6802 22.9787 55.5237 24.672 54.5154 26.7383C54.0189 27.7636 53.9879 27.919 53.9879 29.457C53.9879 30.9328 54.0344 31.1814 54.4223 31.9737C54.9032 32.968 55.7409 33.7758 56.8114 34.3351C58.2387 35.0497 59.1229 35.2206 62.3653 35.376C65.7008 35.5313 66.8488 35.7022 67.7331 36.1528C69.3775 36.9761 69.8895 39.1977 68.8345 40.7823C68.0123 42.0096 66.523 42.7709 64.258 43.1282C61.1397 43.6409 58.3317 42.7243 56.1133 40.4872L55.3066 39.6638L54.8722 40.0366C53.9103 40.8755 52.9795 41.8077 52.9795 41.9164C52.9795 42.1494 54.2826 43.47 55.1359 44.1069C56.3149 44.9769 58.1301 45.8469 59.5728 46.2353C62.3343 46.981 66.3989 46.5304 68.788 45.2099C70.8513 44.0758 71.8752 42.9107 72.5268 40.9532C72.8216 40.0988 72.8526 39.7104 72.7905 38.4675C72.5734 34.5371 70.6031 32.8126 65.6232 32.2534C64.863 32.1757 63.6374 32.098 62.9083 32.098C60.2399 32.098 58.6886 31.6164 57.9904 30.56C56.982 29.053 58.2542 26.6451 60.4571 25.8993C61.1552 25.6663 61.8068 25.5731 62.8152 25.5731C65.1888 25.5731 66.7092 26.0858 68.7725 27.5461L69.7343 28.2297L70.1687 27.7325C70.4014 27.4529 70.8513 26.9092 71.1771 26.5363C71.4874 26.1635 71.7511 25.8217 71.7511 25.7595C71.7356 25.5886 70.1998 24.4079 69.3465 23.9108C68.1675 23.2117 66.5385 22.6058 65.2354 22.3728C63.746 22.1087 61.2173 22.1242 60.0848 22.3883Z" fill="#293394"/>
<path d="M107.355 22.3107C104.857 22.8389 102.546 24.5788 101.46 26.7538C101.026 27.6083 100.994 27.7792 100.994 29.457C100.994 31.0882 101.026 31.3057 101.413 32.0203C101.972 33.0767 102.825 33.8535 104.035 34.4283C105.4 35.0653 106.843 35.2983 110.023 35.4226C112.971 35.5314 114.181 35.7799 115.096 36.4169C115.919 36.9917 116.291 37.7529 116.291 38.887C116.307 40.0056 116.136 40.4561 115.407 41.2639C114.398 42.3825 112.645 43.0661 110.38 43.2369C107.619 43.4234 105.307 42.6155 103.306 40.7202C102.717 40.1609 102.205 39.7104 102.158 39.7104C101.987 39.7104 99.9861 41.8232 99.9861 41.9786C99.9861 42.0873 100.498 42.6311 101.119 43.2214C102.391 44.4332 104.097 45.4585 105.726 46.0178C109.108 47.1519 113.917 46.5615 116.663 44.6817C119.642 42.6311 120.65 38.7938 119.068 35.5624C117.951 33.2942 115.577 32.3621 110.303 32.098C106.626 31.9116 105.897 31.7096 105.044 30.6998C104.221 29.7211 104.656 27.8258 105.943 26.7227C106.89 25.9149 107.976 25.5731 109.62 25.5731C112.009 25.5731 114.088 26.2411 115.81 27.5772C116.105 27.8102 116.431 28.0588 116.539 28.1209C116.648 28.1831 117.113 27.7481 117.734 27.0179C118.696 25.8683 118.727 25.8062 118.478 25.5265C117.594 24.5322 114.848 23.0098 113.095 22.5282C112.025 22.2485 108.332 22.0932 107.355 22.3107Z" fill="#293394"/>
<path d="M130.207 22.3883C127.771 23.0098 125.646 24.6721 124.637 26.7383C124.141 27.7636 124.11 27.919 124.11 29.457C124.11 30.9329 124.157 31.1814 124.544 31.9737C125.025 32.968 125.863 33.7758 126.934 34.3351C128.361 35.0498 129.245 35.2206 132.487 35.376C135.823 35.5314 136.971 35.7022 137.855 36.1528C139.5 36.9762 140.012 39.1977 138.957 40.7823C138.367 41.6679 137.483 42.2582 136.04 42.7553C134.985 43.1127 134.551 43.1748 132.953 43.1903C131.433 43.2059 130.89 43.1437 130.005 42.8641C128.687 42.4446 127.352 41.6057 126.235 40.4872L125.429 39.6638L124.994 40.0366C124.032 40.8756 123.102 41.8077 123.102 41.9164C123.102 42.1495 124.405 43.47 125.258 44.1069C127.818 46.0023 130.858 46.8256 134.163 46.5305C137.762 46.1887 140.741 44.6196 142.075 42.3514C143.037 40.7047 143.223 38.0326 142.494 36.1217C141.501 33.4496 138.383 32.098 133.186 32.098C130.362 32.098 128.826 31.632 128.113 30.56C127.104 29.0531 128.376 26.6451 130.579 25.8994C131.277 25.6663 131.929 25.5731 132.937 25.5731C135.311 25.5731 136.831 26.0858 138.895 27.5461L139.856 28.2297L140.291 27.7325C140.524 27.4529 140.973 26.9092 141.299 26.5363C141.61 26.1635 141.873 25.8217 141.873 25.7595C141.858 25.5265 139.887 24.1128 138.786 23.5535C136.738 22.5282 135.714 22.2796 133.263 22.2175C131.727 22.1709 130.827 22.233 130.207 22.3883Z" fill="#293394"/>
<path d="M77.9566 34.4283V46.0799H79.5855H81.2145V41.6523V37.2402L81.6644 36.9917C82.7659 36.4324 83.9139 36.277 87.8078 36.1528C91.8104 36.0129 92.1362 35.9663 93.5634 35.2362C94.3081 34.8633 95.5027 33.6049 95.9215 32.7816C96.3869 31.8494 96.6041 30.7464 96.5886 29.3482C96.5886 25.946 94.9131 23.7555 91.7328 23.0098C90.9571 22.8233 89.4523 22.7767 84.3638 22.7767H77.9566V34.4283ZM91.345 26.3654C92.2603 26.614 92.9429 27.3131 93.1601 28.2297C93.4393 29.3638 93.2842 30.7464 92.8033 31.4611C92.0896 32.533 91.7018 32.6262 87.42 32.7505C84.1311 32.8437 83.495 32.9059 82.6883 33.1855C82.1763 33.3719 81.6334 33.5583 81.4937 33.6049C81.23 33.6826 81.2145 33.4341 81.2145 29.9386V26.1945H85.9927C88.8317 26.1945 90.9882 26.2567 91.345 26.3654Z" fill="#293394"/>
</svg>
